<?xml version="1.0" encoding="UTF-8" standalone="no"?>
<!-- Created with Inkscape (http://www.inkscape.org/) -->

<svg
   version="1.1"
   id="svg1"
   width="154.90749"
   height="211.23747"
   viewBox="0 0 154.90749 211.23747"
   xmlns="http://www.w3.org/2000/svg"
   xmlns:svg="http://www.w3.org/2000/svg">
  <defs
     id="defs1" />
  <g
     id="g1"
     transform="translate(-158.8001,-17.219283)">
    <path
       style="fill:#333333;fill-opacity:1;stroke-width:0.0880156"
       d="M 158.8001,151.50168 V 74.546606 l 28.66384,-28.663662 28.66384,-28.663661 h 48.7899 48.7899 v 79.41952 79.419517 l -26.19942,26.19922 -26.19941,26.19921 H 210.05443 158.8001 Z m 122.07755,44.12537 23.44159,-23.44139 V 99.396637 26.607616 h -42.15937 -42.15938 l -25.90603,25.905829 -25.90603,25.905829 v 70.324576 70.32457 h 44.62381 44.62381 z M 186.9651,167.4326 v -4.69417 h 49.28874 49.28874 v 4.69417 4.69416 H 236.25384 186.9651 Z m 0,-28.165 v -4.69417 h 49.28874 49.28874 v 4.69417 4.69417 H 236.25384 186.9651 Z m 0,-28.16499 v -4.69417 h 49.28874 49.28874 v 4.69417 4.69416 H 236.25384 186.9651 Z m 0,-28.165002 v -4.694167 h 49.28874 49.28874 v 4.694167 4.694166 H 236.25384 186.9651 Z"
       id="path1" />
  </g>
</svg>
